<svg width="42" height="42" viewBox="0 0 42 42" fill="none" xmlns="http://www.w3.org/2000/svg">
<rect width="41.6" height="41.6" rx="20.8" fill="#F6F1D5"/>
<path d="M25.6711 19.7168C25.2985 19.7168 25.0038 19.4134 25.0038 19.0494C25.0038 18.7288 24.6831 18.0614 24.1458 17.4808C23.6171 16.9174 23.0365 16.5881 22.5511 16.5881C22.1785 16.5881 21.8838 16.2848 21.8838 15.9208C21.8838 15.5568 22.1871 15.2534 22.5511 15.2534C23.4178 15.2534 24.3278 15.7214 25.1251 16.5621C25.8705 17.3508 26.3471 18.3301 26.3471 19.0408C26.3471 19.4134 26.0438 19.7168 25.6711 19.7168Z" fill="#D6B500"/>
<path d="M28.7999 19.7171C28.4272 19.7171 28.1326 19.4138 28.1326 19.0498C28.1326 15.9731 25.6279 13.4771 22.5599 13.4771C22.1872 13.4771 21.8926 13.1738 21.8926 12.8098C21.8926 12.4458 22.1872 12.1338 22.5512 12.1338C26.3646 12.1338 29.4672 15.2365 29.4672 19.0498C29.4672 19.4138 29.1639 19.7171 28.7999 19.7171Z" fill="#D6B500"/>
<path d="M19.9771 23.3571L18.3738 24.9605C18.0358 25.2985 17.4985 25.2985 17.1518 24.9691C17.0565 24.8738 16.9611 24.7871 16.8658 24.6918C15.9731 23.7905 15.1671 22.8458 14.4478 21.8578C13.7371 20.8698 13.1651 19.8818 12.7491 18.9025C12.3418 17.9145 12.1338 16.9698 12.1338 16.0685C12.1338 15.4791 12.2378 14.9158 12.4458 14.3958C12.6538 13.8671 12.9831 13.3818 13.4425 12.9485C13.9971 12.4025 14.6038 12.1338 15.2451 12.1338C15.4878 12.1338 15.7305 12.1858 15.9471 12.2898C16.1725 12.3938 16.3718 12.5498 16.5278 12.7751L18.5385 15.6091C18.6945 15.8258 18.8071 16.0251 18.8851 16.2158C18.9631 16.3978 19.0065 16.5798 19.0065 16.7445C19.0065 16.9525 18.9458 17.1605 18.8245 17.3598C18.7118 17.5591 18.5471 17.7671 18.3391 17.9751L17.6805 18.6598C17.5851 18.7551 17.5418 18.8678 17.5418 19.0065C17.5418 19.0758 17.5505 19.1365 17.5678 19.2058C17.5938 19.2751 17.6198 19.3271 17.6371 19.3791C17.7931 19.6651 18.0618 20.0378 18.4431 20.4885C18.8331 20.9391 19.2491 21.3985 19.6998 21.8578C19.7865 21.9445 19.8818 22.0311 19.9685 22.1178C20.3151 22.4558 20.3238 23.0105 19.9771 23.3571Z" fill="#D6B500"/>
<path d="M29.4414 26.2864C29.4414 26.529 29.398 26.7804 29.3114 27.023C29.2854 27.0924 29.2594 27.1617 29.2247 27.231C29.0774 27.543 28.8867 27.8377 28.6354 28.115C28.2107 28.583 27.7427 28.921 27.214 29.1377C27.2054 29.1377 27.1967 29.1464 27.188 29.1464C26.6767 29.3544 26.122 29.467 25.524 29.467C24.64 29.467 23.6954 29.259 22.6987 28.8344C21.702 28.4097 20.7054 27.8377 19.7174 27.1184C19.3794 26.867 19.0414 26.6157 18.7207 26.347L21.5547 23.513C21.7974 23.695 22.014 23.8337 22.196 23.929C22.2394 23.9464 22.2914 23.9724 22.352 23.9984C22.4214 24.0244 22.4907 24.033 22.5687 24.033C22.716 24.033 22.8287 23.981 22.924 23.8857L23.5827 23.2357C23.7994 23.019 24.0074 22.8544 24.2067 22.7504C24.406 22.629 24.6054 22.5684 24.822 22.5684C24.9867 22.5684 25.16 22.603 25.3507 22.681C25.5414 22.759 25.7407 22.8717 25.9574 23.019L28.826 25.0557C29.0514 25.2117 29.2074 25.3937 29.3027 25.6104C29.3894 25.827 29.4414 26.0437 29.4414 26.2864Z" fill="#D6B500"/>
</svg>
