<svg width="42" height="42" viewBox="0 0 42 42" fill="none" xmlns="http://www.w3.org/2000/svg">
<rect width="41.6" height="41.6" rx="20.8" fill="#F6F1D5"/>
<path d="M25.1338 12.1338H16.4671C14.0751 12.1338 12.1338 14.0665 12.1338 16.4498V21.6325V22.4991C12.1338 24.8825 14.0751 26.8151 16.4671 26.8151H17.7671C18.0011 26.8151 18.3131 26.9711 18.4605 27.1618L19.7605 28.8865C20.3325 29.6491 21.2685 29.6491 21.8405 28.8865L23.1405 27.1618C23.3051 26.9451 23.5651 26.8151 23.8338 26.8151H25.1338C27.5258 26.8151 29.4671 24.8825 29.4671 22.4991V16.4498C29.4671 14.0665 27.5258 12.1338 25.1338 12.1338ZM21.6671 22.3171H16.4671C16.1118 22.3171 15.8171 22.0225 15.8171 21.6671C15.8171 21.3118 16.1118 21.0171 16.4671 21.0171H21.6671C22.0225 21.0171 22.3171 21.3118 22.3171 21.6671C22.3171 22.0225 22.0225 22.3171 21.6671 22.3171ZM25.1338 17.9838H16.4671C16.1118 17.9838 15.8171 17.6891 15.8171 17.3338C15.8171 16.9785 16.1118 16.6838 16.4671 16.6838H25.1338C25.4891 16.6838 25.7838 16.9785 25.7838 17.3338C25.7838 17.6891 25.4891 17.9838 25.1338 17.9838Z" fill="#D6B500"/>
</svg>
