<svg width="40" height="40" viewBox="0 0 40 40" fill="none" xmlns="http://www.w3.org/2000/svg">
<circle cx="20" cy="20" r="20" fill="#00BF00"/>
<path d="M16.2891 14.29C15.8691 14.29 15.5391 13.95 15.5391 13.54V10.75C15.5391 10.34 15.8691 10 16.2891 10C16.7091 10 17.0391 10.34 17.0391 10.75V13.53C17.0391 13.95 16.7091 14.29 16.2891 14.29Z" fill="white"/>
<path d="M23.7109 14.29C23.2909 14.29 22.9609 13.95 22.9609 13.54V10.75C22.9609 10.33 23.3009 10 23.7109 10C24.1309 10 24.4609 10.34 24.4609 10.75V13.53C24.4609 13.95 24.1309 14.29 23.7109 14.29Z" fill="white"/>
<path d="M27.57 12.5C26.91 12.01 25.96 12.48 25.96 13.31V13.41C25.96 14.58 25.12 15.66 23.95 15.78C22.6 15.92 21.46 14.86 21.46 13.54V12.5C21.46 11.95 21.01 11.5 20.46 11.5H19.54C18.99 11.5 18.54 11.95 18.54 12.5V13.54C18.54 14.33 18.13 15.03 17.51 15.42C17.42 15.48 17.32 15.53 17.22 15.58C17.13 15.63 17.03 15.67 16.92 15.7C16.8 15.74 16.67 15.77 16.53 15.78C16.37 15.8 16.21 15.8 16.05 15.78C15.91 15.77 15.78 15.74 15.66 15.7C15.56 15.67 15.46 15.63 15.36 15.58C15.26 15.53 15.16 15.48 15.07 15.42C14.44 14.98 14.04 14.22 14.04 13.41V13.31C14.04 12.54 13.22 12.08 12.57 12.41C12.56 12.42 12.55 12.42 12.54 12.43C12.5 12.45 12.47 12.47 12.43 12.5C12.4 12.53 12.36 12.55 12.33 12.58C12.05 12.8 11.8 13.05 11.59 13.32C11.48 13.44 11.39 13.57 11.31 13.7C11.3 13.71 11.29 13.72 11.28 13.74C11.19 13.87 11.11 14.02 11.04 14.16C11.02 14.18 11.01 14.19 11.01 14.21C10.95 14.33 10.89 14.45 10.85 14.58C10.82 14.63 10.81 14.67 10.79 14.72C10.73 14.87 10.69 15.02 10.65 15.17C10.61 15.31 10.58 15.46 10.56 15.61C10.54 15.72 10.53 15.83 10.52 15.95C10.51 16.09 10.5 16.23 10.5 16.37V25.13C10.5 27.82 12.68 30 15.37 30H24.63C27.32 30 29.5 27.82 29.5 25.13V16.37C29.5 14.78 28.74 13.39 27.57 12.5ZM20 24.25H18.31V26C18.31 26.41 17.97 26.75 17.56 26.75C17.14 26.75 16.81 26.41 16.81 26V24.25H15C14.59 24.25 14.25 23.91 14.25 23.5C14.25 23.09 14.59 22.75 15 22.75H16.81V21C16.81 20.59 17.14 20.25 17.56 20.25C17.97 20.25 18.31 20.59 18.31 21V22.75H20C20.41 22.75 20.75 23.09 20.75 23.5C20.75 23.91 20.41 24.25 20 24.25Z" fill="white"/>
</svg>
