<svg width="32" height="32" viewBox="0 0 32 32" fill="none" xmlns="http://www.w3.org/2000/svg">
<path d="M9.33399 28C8.60066 28 7.9731 27.7391 7.45132 27.2173C6.92954 26.6956 6.66821 26.0676 6.66732 25.3333V8C6.28954 8 5.9731 7.872 5.71799 7.616C5.46288 7.36 5.33488 7.04356 5.33399 6.66667C5.3331 6.28978 5.4611 5.97333 5.71799 5.71733C5.97488 5.46133 6.29132 5.33333 6.66732 5.33333H12.0007C12.0007 4.95556 12.1287 4.63911 12.3847 4.384C12.6407 4.12889 12.9571 4.00089 13.334 4H18.6673C19.0451 4 19.362 4.128 19.618 4.384C19.874 4.64 20.0015 4.95644 20.0007 5.33333H25.334C25.7118 5.33333 26.0287 5.46133 26.2847 5.71733C26.5407 5.97333 26.6682 6.28978 26.6673 6.66667C26.6664 7.04356 26.5384 7.36044 26.2833 7.61733C26.0282 7.87422 25.7118 8.00178 25.334 8V25.3333C25.334 26.0667 25.0731 26.6947 24.5513 27.2173C24.0295 27.74 23.4015 28.0009 22.6673 28H9.33399ZM13.334 22.6667C13.7118 22.6667 14.0287 22.5387 14.2847 22.2827C14.5407 22.0267 14.6682 21.7102 14.6673 21.3333V12C14.6673 11.6222 14.5393 11.3058 14.2833 11.0507C14.0273 10.7956 13.7109 10.6676 13.334 10.6667C12.9571 10.6658 12.6407 10.7938 12.3847 11.0507C12.1287 11.3076 12.0007 11.624 12.0007 12V21.3333C12.0007 21.7111 12.1287 22.028 12.3847 22.284C12.6407 22.54 12.9571 22.6676 13.334 22.6667ZM18.6673 22.6667C19.0451 22.6667 19.362 22.5387 19.618 22.2827C19.874 22.0267 20.0015 21.7102 20.0007 21.3333V12C20.0007 11.6222 19.8727 11.3058 19.6167 11.0507C19.3607 10.7956 19.0442 10.6676 18.6673 10.6667C18.2904 10.6658 17.974 10.7938 17.718 11.0507C17.462 11.3076 17.334 11.624 17.334 12V21.3333C17.334 21.7111 17.462 22.028 17.718 22.284C17.974 22.54 18.2904 22.6676 18.6673 22.6667Z" fill="#FF0000"/>
</svg>
