<svg width="26" height="26" viewBox="0 0 26 26" fill="none" xmlns="http://www.w3.org/2000/svg">
<path d="M13.7526 6.27344H5.45194C3.62749 6.27344 2.13379 7.76714 2.13379 9.59159V21.7119C2.13379 23.2589 3.2434 23.9204 4.5984 23.1629L8.79143 20.8264C9.23954 20.581 9.96505 20.581 10.4025 20.8264L14.5955 23.1629C15.9612 23.9098 17.0708 23.2589 17.0708 21.7119V9.59159C17.0708 7.76714 15.5771 6.27344 13.7526 6.27344Z" fill="#F5F5F5"/>
<path d="M23.472 5.45194V17.5723C23.472 19.1193 22.3624 19.7701 21.0074 19.0233L18.9482 17.871C18.7775 17.775 18.6708 17.5936 18.6708 17.4015V9.59162C18.6708 6.88162 16.4623 4.67308 13.7523 4.67308H9.40985C9.01509 4.67308 8.73769 4.25698 8.91907 3.91556C9.47387 2.8593 10.5835 2.13379 11.8531 2.13379H20.1538C21.9783 2.13379 23.472 3.62749 23.472 5.45194Z" fill="#F5F5F5"/>
</svg>
