<svg width="24" height="24" viewBox="0 0 24 24" fill="none" xmlns="http://www.w3.org/2000/svg">
<path d="M20.501 16V18.5C20.501 20.43 18.931 22 17.001 22H7.00098C5.07098 22 3.50098 20.43 3.50098 18.5V17.85C3.50098 16.28 4.78098 15 6.35098 15H19.501C20.051 15 20.501 15.45 20.501 16Z" fill="white"/>
<path d="M15.501 2H8.50098C4.50098 2 3.50098 3 3.50098 7V14.58C4.26098 13.91 5.26098 13.5 6.35098 13.5H19.501C20.051 13.5 20.501 13.05 20.501 12.5V7C20.501 3 19.501 2 15.501 2ZM13.001 10.75H8.00098C7.59098 10.75 7.25098 10.41 7.25098 10C7.25098 9.59 7.59098 9.25 8.00098 9.25H13.001C13.411 9.25 13.751 9.59 13.751 10C13.751 10.41 13.411 10.75 13.001 10.75ZM16.001 7.25H8.00098C7.59098 7.25 7.25098 6.91 7.25098 6.5C7.25098 6.09 7.59098 5.75 8.00098 5.75H16.001C16.411 5.75 16.751 6.09 16.751 6.5C16.751 6.91 16.411 7.25 16.001 7.25Z" fill="white"/>
</svg>
