<svg width="40" height="40" viewBox="0 0 40 40" fill="none" xmlns="http://www.w3.org/2000/svg">
<circle cx="20" cy="20" r="20" fill="#3B81DC"/>
<path d="M28.501 24V26.5C28.501 28.43 26.931 30 25.001 30H15.001C13.071 30 11.501 28.43 11.501 26.5V25.85C11.501 24.28 12.781 23 14.351 23H27.501C28.051 23 28.501 23.45 28.501 24Z" fill="white"/>
<path d="M23.501 10H16.501C12.501 10 11.501 11 11.501 15V22.58C12.261 21.91 13.261 21.5 14.351 21.5H27.501C28.051 21.5 28.501 21.05 28.501 20.5V15C28.501 11 27.501 10 23.501 10ZM21.001 18.75H16.001C15.591 18.75 15.251 18.41 15.251 18C15.251 17.59 15.591 17.25 16.001 17.25H21.001C21.411 17.25 21.751 17.59 21.751 18C21.751 18.41 21.411 18.75 21.001 18.75ZM24.001 15.25H16.001C15.591 15.25 15.251 14.91 15.251 14.5C15.251 14.09 15.591 13.75 16.001 13.75H24.001C24.411 13.75 24.751 14.09 24.751 14.5C24.751 14.91 24.411 15.25 24.001 15.25Z" fill="white"/>
</svg>
