<svg width="28" height="28" viewBox="0 0 28 28" fill="none" xmlns="http://www.w3.org/2000/svg">
<path d="M24.7919 21.5488L22.8669 22.0038C22.4353 22.1088 22.0969 22.4355 22.0036 22.8671L21.5953 24.5821C21.3736 25.5155 20.1836 25.8071 19.5653 25.0721L16.0769 21.0588C15.7969 20.7321 15.9486 20.2188 16.3686 20.1138C18.4336 19.6121 20.2886 18.4571 21.6536 16.8121C21.8753 16.5438 22.2719 16.5088 22.5169 16.7538L25.1069 19.3438C25.9936 20.2305 25.6786 21.3388 24.7919 21.5488Z" fill="white"/>
<path d="M3.14873 21.5488L5.07372 22.0038C5.50539 22.1088 5.84373 22.4355 5.93706 22.8671L6.34539 24.5821C6.56706 25.5155 7.75706 25.8071 8.37539 25.0721L11.8637 21.0588C12.1437 20.7321 11.9921 20.2188 11.5721 20.1138C9.50706 19.6121 7.65206 18.4571 6.28706 16.8121C6.06539 16.5438 5.66873 16.5088 5.42373 16.7538L2.83373 19.3438C1.94706 20.2305 2.26206 21.3388 3.14873 21.5488Z" fill="white"/>
<path d="M13.9997 2.33301C9.48467 2.33301 5.83301 5.98467 5.83301 10.4997C5.83301 12.1913 6.33467 13.743 7.19801 15.038C8.45801 16.9047 10.453 18.223 12.7747 18.5613C13.1713 18.6313 13.5797 18.6663 13.9997 18.6663C14.4197 18.6663 14.828 18.6313 15.2247 18.5613C17.5463 18.223 19.5413 16.9047 20.8013 15.038C21.6647 13.743 22.1663 12.1913 22.1663 10.4997C22.1663 5.98467 18.5147 2.33301 13.9997 2.33301ZM17.5697 10.243L16.6013 11.2113C16.438 11.3747 16.3447 11.6897 16.403 11.923L16.683 13.1247C16.9047 14.0697 16.403 14.443 15.563 13.9413L14.3963 13.253C14.1863 13.1247 13.8363 13.1247 13.6263 13.253L12.4597 13.9413C11.6197 14.4313 11.118 14.0697 11.3397 13.1247L11.6197 11.923C11.6663 11.7013 11.5847 11.3747 11.4213 11.2113L10.4297 10.243C9.85801 9.67134 10.0447 9.09967 10.838 8.97134L12.0863 8.76134C12.2963 8.72634 12.5413 8.53967 12.6347 8.35301L13.323 6.97634C13.6963 6.22967 14.303 6.22967 14.6763 6.97634L15.3647 8.35301C15.458 8.53967 15.703 8.72634 15.9247 8.76134L17.173 8.97134C17.9547 9.09967 18.1413 9.67134 17.5697 10.243Z" fill="white"/>
</svg>
