<svg width="26" height="26" viewBox="0 0 26 26" fill="none" xmlns="http://www.w3.org/2000/svg">
<path d="M20.3989 9.73137C19.9828 9.73137 19.6521 10.0621 19.6521 10.4782V12.164C19.6521 15.9409 16.5793 19.0137 12.8024 19.0137C9.02544 19.0137 5.95269 15.9409 5.95269 12.164V10.4676C5.95269 10.0515 5.62194 9.7207 5.20584 9.7207C4.78973 9.7207 4.45898 10.0515 4.45898 10.4676V12.1533C4.45898 16.4957 7.79847 20.0699 12.0555 20.454V22.7266C12.0555 23.1427 12.3863 23.4734 12.8024 23.4734C13.2185 23.4734 13.5492 23.1427 13.5492 22.7266V20.454C17.7956 20.0806 21.1458 16.4957 21.1458 12.1533V10.4676C21.1351 10.0621 20.8043 9.73137 20.3989 9.73137Z" fill="white"/>
<path d="M12.8027 2.13477C10.1994 2.13477 8.08691 4.24729 8.08691 6.85059V12.3133C8.08691 14.9166 10.1994 17.0291 12.8027 17.0291C15.406 17.0291 17.5186 14.9166 17.5186 12.3133V6.85059C17.5186 4.24729 15.406 2.13477 12.8027 2.13477ZM14.2004 9.54992C14.1257 9.82732 13.8803 10.0087 13.6029 10.0087C13.5496 10.0087 13.4962 9.99803 13.4429 9.98736C13.0268 9.87 12.5894 9.87 12.1733 9.98736C11.8318 10.0834 11.5011 9.88067 11.4157 9.54992C11.3197 9.21917 11.5224 8.87776 11.8532 8.7924C12.4827 8.62169 13.1442 8.62169 13.7736 8.7924C14.0937 8.87776 14.2858 9.21917 14.2004 9.54992ZM14.7659 7.48008C14.6699 7.73614 14.4351 7.88551 14.1791 7.88551C14.1044 7.88551 14.0404 7.87484 13.9657 7.85351C13.2188 7.5761 12.3866 7.5761 11.6398 7.85351C11.3197 7.97087 10.957 7.80016 10.8396 7.48008C10.7222 7.16 10.8929 6.79725 11.213 6.69055C12.2373 6.31713 13.3682 6.31713 14.3925 6.69055C14.7125 6.80791 14.8833 7.16 14.7659 7.48008Z" fill="white"/>
</svg>
