<svg width="26" height="26" viewBox="0 0 26 26" fill="none" xmlns="http://www.w3.org/2000/svg">
<path d="M18.1377 4.26953H7.46843C4.26765 4.26953 2.13379 5.86992 2.13379 9.60418V13.4024C2.13379 13.7972 2.53922 14.0426 2.89131 13.8826C3.9369 13.4024 5.14253 13.2211 6.41218 13.4451C9.2182 13.9466 11.2774 16.5499 11.2027 19.3986C11.192 19.8467 11.128 20.2841 11.0106 20.7109C10.9253 21.0417 11.192 21.3511 11.5334 21.3511H18.1377C21.3385 21.3511 23.4724 19.7507 23.4724 16.0164V9.60418C23.4724 5.86992 21.3385 4.26953 18.1377 4.26953ZM12.8031 15.4723C11.3307 15.4723 10.1358 14.2773 10.1358 12.805C10.1358 11.3326 11.3307 10.1376 12.8031 10.1376C14.2754 10.1376 15.4704 11.3326 15.4704 12.805C15.4704 14.2773 14.2754 15.4723 12.8031 15.4723ZM20.5383 14.9388C20.5383 15.3763 20.1756 15.739 19.7381 15.739C19.3007 15.739 18.9379 15.3763 18.9379 14.9388V10.6711C18.9379 10.2337 19.3007 9.87091 19.7381 9.87091C20.1756 9.87091 20.5383 10.2337 20.5383 10.6711V14.9388Z" fill="white"/>
<path d="M5.3351 14.9375C4.00144 14.9375 2.79581 15.567 2.01695 16.5272C1.41947 17.2634 1.06738 18.1916 1.06738 19.2052C1.06738 21.5631 2.98786 23.4729 5.3351 23.4729C7.19156 23.4729 8.78128 22.2886 9.35742 20.6242C9.51746 20.1868 9.60282 19.7067 9.60282 19.2052C9.60282 16.858 7.69301 14.9375 5.3351 14.9375ZM7.85305 21.0617C7.83171 21.1257 7.78904 21.1897 7.74636 21.2324L6.97817 21.9899C6.88215 22.0966 6.75411 22.1393 6.61541 22.1393C6.47671 22.1393 6.33801 22.0966 6.24199 21.9899C6.07128 21.8299 6.04994 21.5738 6.15663 21.3818H4.01211C3.32927 21.3818 2.77447 20.8269 2.77447 20.1334V20.0268C2.77447 19.728 3.00919 19.504 3.29726 19.504C3.58534 19.504 3.82006 19.728 3.82006 20.0268V20.1334C3.82006 20.2508 3.90541 20.3468 4.02278 20.3468H6.1673C6.06061 20.1441 6.08195 19.8987 6.25266 19.728C6.45537 19.5253 6.78612 19.5253 6.97817 19.728L7.74636 20.4962C7.78904 20.5389 7.83171 20.6029 7.86372 20.6669C7.9064 20.7843 7.9064 20.9336 7.85305 21.0617ZM7.89573 18.3837C7.89573 18.6824 7.661 18.9065 7.37293 18.9065C7.08486 18.9065 6.85014 18.6824 6.85014 18.3837V18.277C6.85014 18.1596 6.76478 18.0636 6.64742 18.0636H4.51356C4.62026 18.2663 4.59892 18.5117 4.42821 18.6824C4.33219 18.7784 4.20415 18.8318 4.05478 18.8318C3.92675 18.8318 3.78805 18.7784 3.69203 18.6824L2.92384 17.9142C2.88116 17.8716 2.83849 17.8075 2.80648 17.7435C2.7638 17.6155 2.7638 17.4768 2.80648 17.3488C2.83849 17.2954 2.87049 17.2207 2.92384 17.1781L3.69203 16.4205C3.89474 16.2071 4.22549 16.2071 4.41754 16.4205C4.58825 16.5806 4.60959 16.8366 4.50289 17.0287H6.64742C7.33026 17.0287 7.88506 17.5835 7.88506 18.277V18.3837H7.89573Z" fill="white"/>
</svg>
