<svg width="27" height="27" viewBox="0 0 27 27" fill="none" xmlns="http://www.w3.org/2000/svg">
<path d="M7.3938 5.42891H16.762C17.8515 5.42896 18.7026 5.66108 19.3137 6.08321C19.9076 6.49355 20.3492 7.13418 20.5432 8.11348L20.5452 8.12617L20.5481 8.13789C20.6274 8.48145 20.6663 8.86698 20.6663 9.32344V14.8186C20.6662 16.3089 20.2445 17.2421 19.6311 17.8117C19.007 18.3911 18.058 18.712 16.7727 18.7121H7.3938C6.95989 18.7121 6.56186 18.6734 6.20435 18.593L6.17993 18.5881L6.15454 18.5842L6.0022 18.5549C5.849 18.5212 5.69544 18.4741 5.54419 18.4191C4.89611 18.1758 4.40449 17.7875 4.06567 17.2385C3.72043 16.6789 3.49931 15.8961 3.49927 14.8186V9.32344C3.4993 7.83298 3.92199 6.89988 4.5354 6.33028C5.15955 5.7509 6.10841 5.42893 7.3938 5.42891ZM12.0774 8.45918C10.0779 8.45939 8.46118 10.0768 8.46118 12.0764C8.46124 14.0759 10.0779 15.6934 12.0774 15.6936C14.077 15.6936 15.6945 14.076 15.6946 12.0764C15.6946 10.0767 14.077 8.45918 12.0774 8.45918ZM5.97485 8.8752C5.09554 8.87524 4.37432 9.59648 4.37427 10.4758V13.677C4.37443 14.5562 5.09561 15.2775 5.97485 15.2775C6.85413 15.2775 7.57528 14.5562 7.57544 13.677V10.4758C7.57539 9.59645 6.8542 8.8752 5.97485 8.8752ZM18.1702 8.8752C17.2908 8.8752 16.5696 9.59645 16.5696 10.4758V13.677C16.5697 14.5562 17.2909 15.2775 18.1702 15.2775C19.0493 15.2774 19.7706 14.5561 19.7708 13.677V10.4758C19.7707 9.59652 19.0494 8.87532 18.1702 8.8752Z" fill="white" stroke="white" stroke-width="1.60039"/>
<path d="M23.8552 12.1386C23.8619 12.2631 23.866 12.3921 23.866 12.5254V18.0195C23.866 19.51 23.4441 20.4461 22.8289 21.0185C22.2031 21.6006 21.251 21.9248 19.9607 21.9248H10.5935C10.4672 21.9248 10.3441 21.9204 10.2244 21.914H16.7605C18.8928 21.914 20.6896 21.2773 21.9539 20.0146C23.2182 18.7518 23.8552 16.9576 23.8552 14.8301V12.1386Z" fill="white" stroke="white" stroke-width="1.60039"/>
</svg>
