<svg width="24" height="24" viewBox="0 0 24 24" fill="none" xmlns="http://www.w3.org/2000/svg">
<path d="M13.5503 20.1599C13.2903 20.2699 13.0103 20.3699 12.7103 20.4699L11.1303 20.9899C7.16034 22.2699 5.07034 21.1999 3.78034 17.2299L2.50034 13.2799C1.22034 9.30992 2.28034 7.20992 6.25034 5.92992L7.79034 5.41992C7.60034 5.89992 7.44034 6.44992 7.29034 7.06992L6.31034 11.2599C5.21034 15.9699 6.82034 18.5699 11.5303 19.6899L13.2103 20.0899C13.3203 20.1199 13.4403 20.1399 13.5503 20.1599Z" fill="white"/>
<path d="M17.1702 3.2105L15.5002 2.8205C12.1602 2.0305 10.1702 2.6805 9.00018 5.1005C8.70018 5.7105 8.46018 6.4505 8.26018 7.3005L7.28018 11.4905C6.30018 15.6705 7.59018 17.7305 11.7602 18.7205L13.4402 19.1205C14.0202 19.2605 14.5602 19.3505 15.0602 19.3905C18.1802 19.6905 19.8402 18.2305 20.6802 14.6205L21.6602 10.4405C22.6402 6.2605 21.3602 4.1905 17.1702 3.2105Z" fill="white"/>
</svg>
