<svg width="40" height="40" viewBox="0 0 40 40" fill="none" xmlns="http://www.w3.org/2000/svg">
<circle cx="20" cy="20" r="20" fill="#E6C200"/>
<path d="M14.999 21.5C15.4157 21.5 15.77 21.3543 16.062 21.063C16.354 20.7717 16.4997 20.4173 16.499 20C16.4984 19.5827 16.3527 19.2287 16.062 18.938C15.7714 18.6473 15.417 18.5013 14.999 18.5C14.581 18.4987 14.227 18.6447 13.937 18.938C13.647 19.2313 13.501 19.5853 13.499 20C13.497 20.4147 13.643 20.769 13.937 21.063C14.231 21.357 14.585 21.5027 14.999 21.5ZM19.999 21.5C20.4157 21.5 20.77 21.3543 21.062 21.063C21.354 20.7717 21.4997 20.4173 21.499 20C21.4984 19.5827 21.3527 19.2287 21.062 18.938C20.7714 18.6473 20.417 18.5013 19.999 18.5C19.581 18.4987 19.227 18.6447 18.937 18.938C18.647 19.2313 18.501 19.5853 18.499 20C18.497 20.4147 18.643 20.769 18.937 21.063C19.231 21.357 19.585 21.5027 19.999 21.5ZM24.999 21.5C25.4157 21.5 25.77 21.3543 26.062 21.063C26.354 20.7717 26.4997 20.4173 26.499 20C26.4984 19.5827 26.3527 19.2287 26.062 18.938C25.7714 18.6473 25.417 18.5013 24.999 18.5C24.581 18.4987 24.227 18.6447 23.937 18.938C23.647 19.2313 23.501 19.5853 23.499 20C23.497 20.4147 23.643 20.769 23.937 21.063C24.231 21.357 24.585 21.5027 24.999 21.5ZM19.999 30C18.6157 30 17.3157 29.7373 16.099 29.212C14.8824 28.6867 13.824 27.9743 12.924 27.075C12.024 26.1757 11.3117 25.1173 10.787 23.9C10.2624 22.6827 9.99969 21.3827 9.99902 20C9.99836 18.6173 10.261 17.3173 10.787 16.1C11.313 14.8827 12.0254 13.8243 12.924 12.925C13.8227 12.0257 14.881 11.3133 16.099 10.788C17.317 10.2627 18.617 10 19.999 10C21.381 10 22.681 10.2627 23.899 10.788C25.117 11.3133 26.1754 12.0257 27.074 12.925C27.9727 13.8243 28.6854 14.8827 29.212 16.1C29.7387 17.3173 30.001 18.6173 29.999 20C29.997 21.3827 29.7344 22.6827 29.211 23.9C28.6877 25.1173 27.9754 26.1757 27.074 27.075C26.1727 27.9743 25.1144 28.687 23.899 29.213C22.6837 29.739 21.3837 30.0013 19.999 30Z" fill="white"/>
</svg>
