<svg width="24" height="24" viewBox="0 0 24 24" fill="none" xmlns="http://www.w3.org/2000/svg">
<path d="M6.99902 13.5C7.41569 13.5 7.77002 13.3543 8.06202 13.063C8.35402 12.7717 8.49969 12.4173 8.49902 12C8.49836 11.5827 8.35269 11.2287 8.06202 10.938C7.77136 10.6473 7.41702 10.5013 6.99902 10.5C6.58102 10.4987 6.22702 10.6447 5.93702 10.938C5.64702 11.2313 5.50102 11.5853 5.49902 12C5.49702 12.4147 5.64302 12.769 5.93702 13.063C6.23102 13.357 6.58502 13.5027 6.99902 13.5ZM11.999 13.5C12.4157 13.5 12.77 13.3543 13.062 13.063C13.354 12.7717 13.4997 12.4173 13.499 12C13.4984 11.5827 13.3527 11.2287 13.062 10.938C12.7714 10.6473 12.417 10.5013 11.999 10.5C11.581 10.4987 11.227 10.6447 10.937 10.938C10.647 11.2313 10.501 11.5853 10.499 12C10.497 12.4147 10.643 12.769 10.937 13.063C11.231 13.357 11.585 13.5027 11.999 13.5ZM16.999 13.5C17.4157 13.5 17.77 13.3543 18.062 13.063C18.354 12.7717 18.4997 12.4173 18.499 12C18.4984 11.5827 18.3527 11.2287 18.062 10.938C17.7714 10.6473 17.417 10.5013 16.999 10.5C16.581 10.4987 16.227 10.6447 15.937 10.938C15.647 11.2313 15.501 11.5853 15.499 12C15.497 12.4147 15.643 12.769 15.937 13.063C16.231 13.357 16.585 13.5027 16.999 13.5ZM11.999 22C10.6157 22 9.31569 21.7373 8.09903 21.212C6.88236 20.6867 5.82402 19.9743 4.92402 19.075C4.02402 18.1757 3.31169 17.1173 2.78702 15.9C2.26236 14.6827 1.99969 13.3827 1.99902 12C1.99836 10.6173 2.26102 9.31733 2.78702 8.1C3.31302 6.88267 4.02536 5.82433 4.92402 4.925C5.82269 4.02567 6.88103 3.31333 8.09903 2.788C9.31703 2.26267 10.617 2 11.999 2C13.381 2 14.681 2.26267 15.899 2.788C17.117 3.31333 18.1754 4.02567 19.074 4.925C19.9727 5.82433 20.6854 6.88267 21.212 8.1C21.7387 9.31733 22.001 10.6173 21.999 12C21.997 13.3827 21.7344 14.6827 21.211 15.9C20.6877 17.1173 19.9754 18.1757 19.074 19.075C18.1727 19.9743 17.1144 20.687 15.899 21.213C14.6837 21.739 13.3837 22.0013 11.999 22Z" fill="white"/>
</svg>
