<svg width="40" height="40" viewBox="0 0 40 40" fill="none" xmlns="http://www.w3.org/2000/svg">
<circle cx="20" cy="20" r="20" fill="#FF0000"/>
<path d="M13.97 9H11.03C9.76 9 9 9.76 9 11.03V13.97C9 15.24 9.76 16 11.03 16H13.97C15.24 16 16 15.24 16 13.97V11.03C16 9.76 15.24 9 13.97 9ZM14.47 13.56C14.72 13.81 14.72 14.22 14.47 14.47C14.34 14.59 14.17 14.65 14.01 14.65C13.85 14.65 13.69 14.59 13.56 14.47L12.49 13.41L11.45 14.47C11.32 14.59 11.16 14.65 10.98 14.65C10.82 14.65 10.66 14.59 10.53 14.47C10.28 14.22 10.28 13.81 10.53 13.56L11.6 12.5L10.54 11.45C10.29 11.2 10.29 10.79 10.54 10.54C10.79 10.29 11.2 10.29 11.45 10.54L12.49 11.6L13.55 10.54C13.8 10.29 14.21 10.29 14.46 10.54C14.71 10.79 14.71 11.2 14.46 11.45L13.41 12.5L14.47 13.56Z" fill="white"/>
<path d="M29.4995 23.8202C29.4995 23.9702 29.4495 24.1202 29.3195 24.2502C27.8695 25.7102 25.2895 28.3102 23.8095 29.8002C23.6795 29.9402 23.5095 30.0002 23.3395 30.0002C23.0095 30.0002 22.6895 29.7402 22.6895 29.3602V25.8602C22.6895 24.4002 23.9295 23.1902 25.4495 23.1902C26.3995 23.1802 27.7195 23.1802 28.8495 23.1802C29.2395 23.1802 29.4995 23.4902 29.4995 23.8202Z" fill="white"/>
<path d="M29.4995 23.8202C29.4995 23.9702 29.4495 24.1202 29.3195 24.2502C27.8695 25.7102 25.2895 28.3102 23.8095 29.8002C23.6795 29.9402 23.5095 30.0002 23.3395 30.0002C23.0095 30.0002 22.6895 29.7402 22.6895 29.3602V25.8602C22.6895 24.4002 23.9295 23.1902 25.4495 23.1902C26.3995 23.1802 27.7195 23.1802 28.8495 23.1802C29.2395 23.1802 29.4995 23.4902 29.4995 23.8202Z" fill="white"/>
<path d="M24.63 10H18.5C17.95 10 17.5 10.45 17.5 11V14.5C17.5 16.16 16.16 17.5 14.5 17.5H11.5C10.95 17.5 10.5 17.95 10.5 18.5V25.13C10.5 27.82 12.68 30 15.37 30H20.19C20.74 30 21.19 29.55 21.19 29V25.86C21.19 23.56 23.1 21.69 25.45 21.69C25.98 21.68 27.27 21.68 28.5 21.68C29.05 21.68 29.5 21.24 29.5 20.68V14.87C29.5 12.18 27.32 10 24.63 10ZM16.72 25.01H14.08C13.67 25.01 13.33 24.67 13.33 24.26C13.33 23.84 13.67 23.5 14.08 23.5H16.72C17.15 23.5 17.47 23.84 17.47 24.26C17.47 24.67 17.15 25.01 16.72 25.01ZM19.51 21.3H14.08C13.67 21.3 13.33 20.96 13.33 20.55C13.33 20.13 13.67 19.79 14.08 19.79H19.51C19.92 19.79 20.27 20.13 20.27 20.55C20.27 20.96 19.92 21.3 19.51 21.3Z" fill="white"/>
</svg>
