<svg width="40" height="40" viewBox="0 0 40 40" fill="none" xmlns="http://www.w3.org/2000/svg">
<circle cx="20" cy="20" r="20" fill="#C25589"/>
<path d="M30.001 18.75C30.411 18.75 30.751 18.41 30.751 18V17C30.751 12.59 29.411 11.25 25.001 11.25H18.751V13.5C18.751 13.91 18.411 14.25 18.001 14.25C17.591 14.25 17.251 13.91 17.251 13.5V11.25H15.001C10.591 11.25 9.25098 12.59 9.25098 17V17.5C9.25098 17.91 9.59098 18.25 10.001 18.25C10.961 18.25 11.751 19.04 11.751 20C11.751 20.96 10.961 21.75 10.001 21.75C9.59098 21.75 9.25098 22.09 9.25098 22.5V23C9.25098 27.41 10.591 28.75 15.001 28.75H17.251V26.5C17.251 26.09 17.591 25.75 18.001 25.75C18.411 25.75 18.751 26.09 18.751 26.5V28.75H25.001C29.411 28.75 30.751 27.41 30.751 23C30.751 22.59 30.411 22.25 30.001 22.25C29.041 22.25 28.251 21.46 28.251 20.5C28.251 19.54 29.041 18.75 30.001 18.75ZM18.751 22.17C18.751 22.58 18.411 22.92 18.001 22.92C17.591 22.92 17.251 22.58 17.251 22.17V17.83C17.251 17.42 17.591 17.08 18.001 17.08C18.411 17.08 18.751 17.42 18.751 17.83V22.17Z" fill="white"/>
</svg>
