<svg width="27" height="27" viewBox="0 0 27 27" fill="none" xmlns="http://www.w3.org/2000/svg">
<path d="M24.3472 12.3435C24.7846 12.3435 25.1473 11.9807 25.1473 11.5433V10.4763C25.1473 5.77118 23.7177 4.3415 19.0125 4.3415H12.3442V6.74209C12.3442 7.17953 11.9814 7.54228 11.544 7.54228C11.1066 7.54228 10.7438 7.17953 10.7438 6.74209V4.3415H8.34322C3.63806 4.3415 2.20837 5.77118 2.20837 10.4763V11.0098C2.20837 11.4472 2.57113 11.81 3.00857 11.81C4.03282 11.81 4.8757 12.6529 4.8757 13.6771C4.8757 14.7014 4.03282 15.5443 3.00857 15.5443C2.57113 15.5443 2.20837 15.907 2.20837 16.3444V16.8779C2.20837 21.5831 3.63806 23.0128 8.34322 23.0128H10.7438V20.6122C10.7438 20.1747 11.1066 19.812 11.544 19.812C11.9814 19.812 12.3442 20.1747 12.3442 20.6122V23.0128H19.0125C23.7177 23.0128 25.1473 21.5831 25.1473 16.8779C25.1473 16.4405 24.7846 16.0777 24.3472 16.0777C23.3229 16.0777 22.48 15.2348 22.48 14.2106C22.48 13.1863 23.3229 12.3435 24.3472 12.3435ZM12.3442 15.9924C12.3442 16.4298 11.9814 16.7926 11.544 16.7926C11.1066 16.7926 10.7438 16.4298 10.7438 15.9924V11.3619C10.7438 10.9244 11.1066 10.5617 11.544 10.5617C11.9814 10.5617 12.3442 10.9244 12.3442 11.3619V15.9924Z" fill="white"/>
</svg>
