<svg width="26" height="26" viewBox="0 0 26 26" fill="none" xmlns="http://www.w3.org/2000/svg">
<path d="M21.8717 10.871H18.7883C16.2597 10.871 14.2005 8.81179 14.2005 6.28317V3.19974C14.2005 2.61293 13.7204 2.13281 13.1336 2.13281H8.60979C5.32365 2.13281 2.66699 4.26667 2.66699 8.07561V17.5286C2.66699 21.3375 5.32365 23.4714 8.60979 23.4714H16.9959C20.282 23.4714 22.9387 21.3375 22.9387 17.5286V11.9379C22.9387 11.3511 22.4585 10.871 21.8717 10.871ZM12.3014 14.4345C12.1413 14.5945 11.9386 14.6692 11.7359 14.6692C11.5332 14.6692 11.3305 14.5945 11.1704 14.4345L10.4022 13.6663V18.1367C10.4022 18.5742 10.0395 18.9369 9.60203 18.9369C9.16459 18.9369 8.80184 18.5742 8.80184 18.1367V13.6663L8.03365 14.4345C7.72424 14.7439 7.21211 14.7439 6.9027 14.4345C6.59329 14.1251 6.59329 13.613 6.9027 13.3036L9.03656 11.1697C9.11125 11.1057 9.18593 11.0523 9.27129 11.0097C9.29262 10.999 9.32463 10.9883 9.34597 10.9777C9.40999 10.9563 9.474 10.9456 9.54869 10.935C9.58069 10.935 9.60203 10.935 9.63404 10.935C9.7194 10.935 9.80475 10.9563 9.89011 10.9883C9.90077 10.9883 9.90077 10.9883 9.91144 10.9883C9.9968 11.0203 10.0822 11.0843 10.1462 11.1484C10.1568 11.159 10.1675 11.159 10.1675 11.1697L12.3014 13.3036C12.6108 13.613 12.6108 14.1251 12.3014 14.4345Z" fill="white"/>
<path d="M18.5962 9.40002C19.6097 9.41069 21.0181 9.41069 22.2237 9.41069C22.8319 9.41069 23.152 8.69585 22.7252 8.26908C21.1888 6.72203 18.4361 3.93734 16.8571 2.35829C16.4196 1.92085 15.6621 2.21959 15.6621 2.82774V6.55132C15.6621 8.10904 16.9851 9.40002 18.5962 9.40002Z" fill="white"/>
</svg>
